{
    "asset" : {
        "generator" : "Khronos glTF Blender I/O v1.7.33",
        "version" : "2.0"
    },
    "scene" : 0,
    "scenes" : [
        {
            "name" : "Scene",
            "nodes" : [
                0
            ]
        }
    ],
    "nodes" : [
        {
            "mesh" : 0,
            "name" : "Circle"
        }
    ],
    "meshes" : [
        {
            "name" : "Circle",
            "primitives" : [
                {
                    "attributes" : {
                        "POSITION" : 0,
                        "NORMAL" : 1,
                        "TEXCOORD_0" : 2
                    },
                    "indices" : 3
                }
            ]
        }
    ],
    "accessors" : [
        {
            "bufferView" : 0,
            "componentType" : 5126,
            "count" : 1369,
            "max" : [
                6.517919540405273,
                0.4103376269340515,
                7.341632843017578
            ],
            "min" : [
                -6.517918586730957,
                -0.4013708233833313,
                -4.990021228790283
            ],
            "type" : "VEC3"
        },
        {
            "bufferView" : 1,
            "componentType" : 5126,
            "count" : 1369,
            "type" : "VEC3"
        },
        {
            "bufferView" : 2,
            "componentType" : 5126,
            "count" : 1369,
            "type" : "VEC2"
        },
        {
            "bufferView" : 3,
            "componentType" : 5123,
            "count" : 4410,
            "type" : "SCALAR"
        }
    ],
    "bufferViews" : [
        {
            "buffer" : 0,
            "byteLength" : 16428,
            "byteOffset" : 0
        },
        {
            "buffer" : 0,
            "byteLength" : 16428,
            "byteOffset" : 16428
        },
        {
            "buffer" : 0,
            "byteLength" : 10952,
            "byteOffset" : 32856
        },
        {
            "buffer" : 0,
            "byteLength" : 8820,
            "byteOffset" : 43808
        }
    ],
    "buffers" : [
        {
            "byteLength" : 52628,
            "uri" : "data:application/octet-stream;base64,"
        }
    ]
}
