{
    "asset" : {
        "generator" : "Khronos glTF Blender I/O v1.7.33",
        "version" : "2.0"
    },
    "scene" : 0,
    "scenes" : [
        {
            "name" : "Scene",
            "nodes" : [
                0
            ]
        }
    ],
    "nodes" : [
        {
            "mesh" : 0,
            "name" : "Cylinder"
        }
    ],
    "materials" : [
        {
            "doubleSided" : true,
            "name" : "casing",
            "pbrMetallicRoughness" : {
                "baseColorFactor" : [
                    0.7002570629119873,
                    0.8000000715255737,
                    0,
                    1
                ],
                "metallicFactor" : 0,
                "roughnessFactor" : 0.5
            }
        },
        {
            "doubleSided" : true,
            "name" : "bullet",
            "pbrMetallicRoughness" : {
                "baseColorFactor" : [
                    0.06680715829133987,
                    0.06680715829133987,
                    0.06680715829133987,
                    1
                ],
                "metallicFactor" : 0,
                "roughnessFactor" : 0.5
            }
        },
        {
            "doubleSided" : true,
            "name" : "ignition",
            "pbrMetallicRoughness" : {
                "baseColorFactor" : [
                    0.8000000715255737,
                    0.3302712142467499,
                    0.012253152206540108,
                    1
                ],
                "metallicFactor" : 0,
                "roughnessFactor" : 0.5
            }
        }
    ],
    "meshes" : [
        {
            "name" : "Cylinder",
            "primitives" : [
                {
                    "attributes" : {
                        "POSITION" : 0,
                        "NORMAL" : 1,
                        "TEXCOORD_0" : 2
                    },
                    "indices" : 3,
                    "material" : 0
                },
                {
                    "attributes" : {
                        "POSITION" : 4,
                        "NORMAL" : 5,
                        "TEXCOORD_0" : 6
                    },
                    "indices" : 7,
                    "material" : 1
                },
                {
                    "attributes" : {
                        "POSITION" : 8,
                        "NORMAL" : 9,
                        "TEXCOORD_0" : 10
                    },
                    "indices" : 11,
                    "material" : 2
                }
            ]
        }
    ],
    "accessors" : [
        {
            "bufferView" : 0,
            "componentType" : 5126,
            "count" : 96,
            "max" : [
                4.511274337768555,
                0.15311682224273682,
                -0.11896968632936478
            ],
            "min" : [
                4.457487106323242,
                0.09932936728000641,
                -0.2842091917991638
            ],
            "type" : "VEC3"
        },
        {
            "bufferView" : 1,
            "componentType" : 5126,
            "count" : 96,
            "type" : "VEC3"
        },
        {
            "bufferView" : 2,
            "componentType" : 5126,
            "count" : 96,
            "type" : "VEC2"
        },
        {
            "bufferView" : 3,
            "componentType" : 5123,
            "count" : 240,
            "type" : "SCALAR"
        },
        {
            "bufferView" : 4,
            "componentType" : 5126,
            "count" : 89,
            "max" : [
                4.509974002838135,
                0.15181617438793182,
                -0.09113235026597977
            ],
            "min" : [
                4.458787441253662,
                0.1006300300359726,
                -0.11896968632936478
            ],
            "type" : "VEC3"
        },
        {
            "bufferView" : 5,
            "componentType" : 5126,
            "count" : 89,
            "type" : "VEC3"
        },
        {
            "bufferView" : 6,
            "componentType" : 5126,
            "count" : 89,
            "type" : "VEC2"
        },
        {
            "bufferView" : 7,
            "componentType" : 5123,
            "count" : 216,
            "type" : "SCALAR"
        },
        {
            "bufferView" : 8,
            "componentType" : 5126,
            "count" : 9,
            "max" : [
                4.511186122894287,
                0.15302857756614685,
                -0.2842091917991638
            ],
            "min" : [
                4.45757532119751,
                0.09941761195659637,
                -0.2848066985607147
            ],
            "type" : "VEC3"
        },
        {
            "bufferView" : 9,
            "componentType" : 5126,
            "count" : 9,
            "type" : "VEC3"
        },
        {
            "bufferView" : 10,
            "componentType" : 5126,
            "count" : 9,
            "type" : "VEC2"
        },
        {
            "bufferView" : 11,
            "componentType" : 5123,
            "count" : 24,
            "type" : "SCALAR"
        }
    ],
    "bufferViews" : [
        {
            "buffer" : 0,
            "byteLength" : 1152,
            "byteOffset" : 0
        },
        {
            "buffer" : 0,
            "byteLength" : 1152,
            "byteOffset" : 1152
        },
        {
            "buffer" : 0,
            "byteLength" : 768,
            "byteOffset" : 2304
        },
        {
            "buffer" : 0,
            "byteLength" : 480,
            "byteOffset" : 3072
        },
        {
            "buffer" : 0,
            "byteLength" : 1068,
            "byteOffset" : 3552
        },
        {
            "buffer" : 0,
            "byteLength" : 1068,
            "byteOffset" : 4620
        },
        {
            "buffer" : 0,
            "byteLength" : 712,
            "byteOffset" : 5688
        },
        {
            "buffer" : 0,
            "byteLength" : 432,
            "byteOffset" : 6400
        },
        {
            "buffer" : 0,
            "byteLength" : 108,
            "byteOffset" : 6832
        },
        {
            "buffer" : 0,
            "byteLength" : 108,
            "byteOffset" : 6940
        },
        {
            "buffer" : 0,
            "byteLength" : 72,
            "byteOffset" : 7048
        },
        {
            "buffer" : 0,
            "byteLength" : 48,
            "byteOffset" : 7120
        }
    ],
    "buffers" : [
        {
            "byteLength" : 7168,
            "uri" : "data:application/octet-stream;base64,"
        }
    ]
}
